<svg id="Iconly_Light-Outline_Notification" data-name="Iconly/Light-Outline/Notification" xmlns="http://www.w3.org/2000/svg" width="13.306" height="15.466" viewBox="0 0 13.306 15.466">
  <g id="Notification" transform="translate(0 0)">
    <path id="Combined-Shape" d="M5.269,13.744a1.815,1.815,0,0,0,1.347.643h0a1.821,1.821,0,0,0,1.352-.644.54.54,0,0,1,.8.722,2.889,2.889,0,0,1-2.154,1h0a2.88,2.88,0,0,1-2.149-1,.539.539,0,0,1,.8-.721ZM6.652,0A5.163,5.163,0,0,1,12,4.816a3.68,3.68,0,0,0,.627,2.242,3.906,3.906,0,0,1,.681,2.273c-.251,2.911-3.29,3.149-6.654,3.149S.248,12.242,0,9.377A3.94,3.94,0,0,1,.679,7.058l.113-.19a3.608,3.608,0,0,0,.515-2.052A5.163,5.163,0,0,1,6.652,0Zm0,1.079A4.127,4.127,0,0,0,2.386,4.816a4.69,4.69,0,0,1-.782,2.8,2.844,2.844,0,0,0-.527,1.718c.12,1.357,1.016,2.07,5.575,2.07,4.534,0,5.458-.745,5.577-2.116A2.815,2.815,0,0,0,11.7,7.613a4.69,4.69,0,0,1-.782-2.8A4.127,4.127,0,0,0,6.652,1.079Z" transform="translate(0)" fill="#1fc600" fill-rule="evenodd"/>
  </g>
</svg>
