<svg id="Iconly_Light-Outline_2-User" data-name="Iconly/Light-Outline/2-User" xmlns="http://www.w3.org/2000/svg" width="12.324" height="15.466" viewBox="0 0 12.324 15.466">
  <g id="_2-User" data-name="2-User" transform="translate(0 0)">
    <path id="Combined-Shape" d="M6.162,9.7c2.645,0,6.162.3,6.162,2.875,0,2.714-4.1,2.877-5.856,2.887H5.83C3.956,15.457,0,15.295,0,12.6c0-2.718,4.1-2.881,5.856-2.89h.306Zm0,1.217c-2.255,0-4.944.29-4.944,1.674,0,1.1,1.664,1.654,4.944,1.654s4.944-.562,4.944-1.67S9.442,10.922,6.162,10.922ZM6.162,0a4.173,4.173,0,0,1,4.168,4.168,4.157,4.157,0,0,1-4.14,4.168H6.162A4.168,4.168,0,1,1,6.162,0Zm0,1.217a2.95,2.95,0,1,0,0,5.9h.025A2.939,2.939,0,0,0,9.112,4.17,2.954,2.954,0,0,0,6.162,1.217Z" transform="translate(0 0)" fill="#1fc600" fill-rule="evenodd"/>
  </g>
</svg>
