<svg xmlns="http://www.w3.org/2000/svg" width="14.989" height="14.989" viewBox="0 0 14.989 14.989">
  <g id="Icon_awesome-user-alt" data-name="Icon awesome-user-alt" fill="none">
    <path d="M7.495,8.432A4.216,4.216,0,1,0,3.279,4.216,4.217,4.217,0,0,0,7.495,8.432Zm3.747.937H9.629a5.1,5.1,0,0,1-4.268,0H3.747A3.747,3.747,0,0,0,0,13.116v.468a1.406,1.406,0,0,0,1.405,1.405H13.584a1.406,1.406,0,0,0,1.405-1.405v-.468A3.747,3.747,0,0,0,11.242,9.368Z" stroke="none"/>
    <path d="M 13.58415794372559 13.9893798828125 C 13.8076171875 13.9893798828125 13.98941802978516 13.80758953094482 13.98941802978516 13.58413028717041 L 13.98941802978516 13.11571025848389 C 13.98941802978516 11.60081958770752 12.7569580078125 10.36835956573486 11.24205780029297 10.36835956573486 L 9.837844848632812 10.36835956573486 C 9.090950012207031 10.67930698394775 8.303821563720703 10.83677959442139 7.494707584381104 10.83677959442139 C 6.688374996185303 10.83677959442139 5.901525497436523 10.67931938171387 5.152284622192383 10.36835956573486 L 3.747357606887817 10.36835956573486 C 2.232457637786865 10.36835956573486 0.9999975562095642 11.60081958770752 0.9999975562095642 13.11571025848389 L 0.9999975562095642 13.58413028717041 C 0.9999975562095642 13.80758953094482 1.181797623634338 13.9893798828125 1.40525758266449 13.9893798828125 L 13.58415794372559 13.9893798828125 M 7.494707584381104 7.431529998779297 C 9.267887115478516 7.431529998779297 10.71047782897949 5.988939762115479 10.71047782897949 4.215759754180908 C 10.71047782897949 2.442579984664917 9.267887115478516 0.9999999403953552 7.494707584381104 0.9999999403953552 C 5.721527576446533 0.9999999403953552 4.278937816619873 2.442579984664917 4.278937816619873 4.215759754180908 C 4.278937816619873 5.988939762115479 5.721527576446533 7.431529998779297 7.494707584381104 7.431529998779297 M 13.58415794372559 14.9893798828125 L 1.40525758266449 14.9893798828125 C 0.6294375658035278 14.9893798828125 -2.415618837403599e-06 14.35993957519531 -2.415618837403599e-06 13.58413028717041 L -2.415618837403599e-06 13.11571025848389 C -2.415618837403599e-06 11.04588985443115 1.677527546882629 9.368359565734863 3.747357606887817 9.368359565734863 L 5.360467433929443 9.368359565734863 C 6.013327598571777 9.666979789733887 6.733527660369873 9.836779594421387 7.494707584381104 9.836779594421387 C 8.255887985229492 9.836779594421387 8.979007720947266 9.666979789733887 9.628947257995605 9.368359565734863 L 11.24205780029297 9.368359565734863 C 13.31188774108887 9.368359565734863 14.98941802978516 11.04588985443115 14.98941802978516 13.11571025848389 L 14.98941802978516 13.58413028717041 C 14.98941802978516 14.35993957519531 14.35997772216797 14.9893798828125 13.58415794372559 14.9893798828125 Z M 7.494707584381104 8.431529998779297 C 5.167247772216797 8.431529998779297 3.278937578201294 6.543220043182373 3.278937578201294 4.215759754180908 C 3.278937578201294 1.888309955596924 5.167247772216797 -5.859374851979737e-08 7.494707584381104 -5.859374851979737e-08 C 9.82216739654541 -5.859374851979737e-08 11.71047782897949 1.888309955596924 11.71047782897949 4.215759754180908 C 11.71047782897949 6.543220043182373 9.82216739654541 8.431529998779297 7.494707584381104 8.431529998779297 Z" stroke="none" fill="#888"/>
  </g>
</svg>
