<svg xmlns="http://www.w3.org/2000/svg" width="13.185" height="14.65" viewBox="0 0 13.185 14.65">
  <path id="Icon_material-date-range" data-name="Icon material-date-range" d="M8.895,9.592H7.43v1.465H8.895Zm2.93,0H10.36v1.465h1.465Zm2.93,0H13.29v1.465h1.465ZM16.22,4.465h-.732V3H14.022V4.465H8.162V3H6.7V4.465H5.965A1.458,1.458,0,0,0,4.507,5.93L4.5,16.185A1.465,1.465,0,0,0,5.965,17.65H16.22a1.469,1.469,0,0,0,1.465-1.465V5.93A1.469,1.469,0,0,0,16.22,4.465Zm0,11.72H5.965V8.127H16.22Z" transform="translate(-4.5 -3)" fill="#1fc600"/>
</svg>
