<svg xmlns="http://www.w3.org/2000/svg" width="15.038" height="13.159" viewBox="0 0 15.038 13.159">
  <path id="Icon_awesome-wallet" data-name="Icon awesome-wallet" d="M13.546,5.07H2.35a.47.47,0,0,1,0-.94H13.628a.47.47,0,0,0,.47-.47,1.41,1.41,0,0,0-1.41-1.41H1.88A1.88,1.88,0,0,0,0,4.13v9.4a1.88,1.88,0,0,0,1.88,1.88H13.546A1.454,1.454,0,0,0,15.038,14V6.48A1.454,1.454,0,0,0,13.546,5.07Zm-1.328,6.109a.94.94,0,1,1,.94-.94A.94.94,0,0,1,12.219,11.179Z" transform="translate(0 -2.25)" fill="#5c6560"/>
</svg>
