<svg id="Iconly_Light-Outline_Plus" data-name="Iconly/Light-Outline/Plus" xmlns="http://www.w3.org/2000/svg" width="15.466" height="15.466" viewBox="0 0 15.466 15.466">
  <g id="Plus" transform="translate(0 0)">
    <path id="Combined-Shape" d="M11.1,0a4.225,4.225,0,0,1,4.362,4.557v6.352A4.225,4.225,0,0,1,11.1,15.466H4.362A4.225,4.225,0,0,1,0,10.909V4.557A4.225,4.225,0,0,1,4.362,0Zm0,1.079H4.362A3.171,3.171,0,0,0,1.079,4.557v6.352a3.171,3.171,0,0,0,3.283,3.478H11.1a3.171,3.171,0,0,0,3.283-3.478V4.557A3.171,3.171,0,0,0,11.1,1.079ZM7.733,4.552a.54.54,0,0,1,.54.54v2.1h2.1a.54.54,0,1,1,0,1.079h-2.1v2.1a.54.54,0,0,1-1.079,0v-2.1H5.1a.54.54,0,1,1,0-1.079h2.1v-2.1A.54.54,0,0,1,7.733,4.552Z" fill="#1fc600" fill-rule="evenodd"/>
  </g>
</svg>
