<svg id="Iconly_Light-Outline_Chat" data-name="Iconly/Light-Outline/Chat" xmlns="http://www.w3.org/2000/svg" width="15.466" height="15.466" viewBox="0 0 15.466 15.466">
  <g id="Chat" transform="translate(0 0)">
    <path id="Combined-Shape" d="M7.734,0A7.734,7.734,0,0,1,13.2,13.2a7.769,7.769,0,0,1-8.728,1.551,2.575,2.575,0,0,0-.8-.237,3.118,3.118,0,0,0-.86.217c-.629.216-1.412.485-1.991-.092s-.311-1.359-.1-1.987a3.1,3.1,0,0,0,.214-.871A2.528,2.528,0,0,0,.7,10.968a7.759,7.759,0,0,1,1.561-8.7A7.681,7.681,0,0,1,7.734,0Zm0,1.079A6.61,6.61,0,0,0,3.028,3.028,6.687,6.687,0,0,0,1.695,10.54a3.4,3.4,0,0,1,.331,1.244A3.891,3.891,0,0,1,1.754,13c-.105.308-.264.773-.162.875s.568-.06.876-.165a3.929,3.929,0,0,1,1.207-.275,3.343,3.343,0,0,1,1.228.326A6.659,6.659,0,0,0,12.441,3.028,6.61,6.61,0,0,0,7.735,1.08Zm2.84,6.233a.719.719,0,1,1-.006,0Zm-2.885,0a.719.719,0,1,1-.006,0Zm-2.885,0a.719.719,0,1,1-.006,0Z" transform="translate(0 0)" fill="#1fc600" fill-rule="evenodd"/>
  </g>
</svg>
