<svg xmlns="http://www.w3.org/2000/svg" width="16.879" height="16.499" viewBox="0 0 16.879 16.499">
  <g id="Group_9972" data-name="Group 9972" transform="translate(-25 -840)">
    <path id="Path_2906" data-name="Path 2906" d="M35.126,844.125a.844.844,0,0,0,1.688,0V843.3a3.338,3.338,0,0,0-3.375-3.3H28.375A3.338,3.338,0,0,0,25,843.3v9.9a3.338,3.338,0,0,0,3.375,3.3h5.068a3.338,3.338,0,0,0,3.375-3.3v-.825a.844.844,0,0,0-1.688,0v.825a1.669,1.669,0,0,1-1.688,1.65H28.375a1.669,1.669,0,0,1-1.688-1.65v-9.9a1.669,1.669,0,0,1,1.688-1.65h5.063a1.669,1.669,0,0,1,1.688,1.65ZM39,849.075,37.9,850.141a.811.811,0,0,0,0,1.166.858.858,0,0,0,1.194,0l2.533-2.475a.811.811,0,0,0,0-1.166L39.1,845.192a.858.858,0,0,0-1.194,0,.811.811,0,0,0,0,1.166L39,847.425H30.9a.825.825,0,1,0,0,1.65Z" fill="#5c6560" fill-rule="evenodd"/>
  </g>
</svg>
